<svg width="120" height="120" viewBox="0 0 120 120" fill="none" xmlns="http://www.w3.org/2000/svg">
<rect width="120" height="120" rx="32" fill="#18181B"/>
<path d="M48.0353 94.8C42.8153 94.8 38.3453 93.84 34.6253 91.92C30.9653 90 28.1453 87.24 26.1653 83.64C24.2453 79.98 23.2853 75.57 23.2853 70.41V66.81H39.8453V70.95C39.8453 73.35 40.5353 75.33 41.9153 76.89C43.3553 78.39 45.3653 79.14 47.9453 79.14C50.5253 79.14 52.5053 78.39 53.8853 76.89C55.3253 75.33 56.0453 73.35 56.0453 70.95V40.08H72.7853V70.41C72.7853 75.57 71.7953 79.98 69.8153 83.64C67.8953 87.24 65.1053 90 61.4453 91.92C57.7853 93.84 53.3153 94.8 48.0353 94.8ZM30.6653 41.88V27.3H72.7853V41.88H30.6653ZM78.3217 93V75.18H95.9617V93H78.3217Z" fill="#F4F4F5"/>
</svg>
