<svg width="256" height="256" viewBox="0 0 256 256" fill="none" xmlns="http://www.w3.org/2000/svg">
    <rect width="256" height="256" fill="#18181B"/>
    <path d="M93.592 226.12C78.744 226.12 66.0293 223.389 55.448 217.928C45.0373 212.467 37.016 204.616 31.384 194.376C25.9227 183.965 23.192 171.421 23.192 156.744V146.504H70.296V158.28C70.296 165.107 72.2587 170.739 76.184 175.176C80.28 179.443 85.9973 181.576 93.336 181.576C100.675 181.576 106.307 179.443 110.232 175.176C114.328 170.739 116.376 165.107 116.376 158.28V70.472H163.992V156.744C163.992 171.421 161.176 183.965 155.544 194.376C150.083 204.616 142.147 212.467 131.736 217.928C121.325 223.389 108.611 226.12 93.592 226.12ZM44.184 75.592V34.12H163.992V75.592H44.184ZM179.74 221V170.312H229.916V221H179.74Z"
          fill="#FFFFFF"/>
</svg>
