<svg width="256" height="256" viewBox="0 0 256 256" fill="none" xmlns="http://www.w3.org/2000/svg">
    <rect width="256" height="256" fill="#18181B"/>
    <path d="M110.296 173.56C102.872 173.56 96.5147 172.195 91.224 169.464C86.0187 166.733 82.008 162.808 79.192 157.688C76.4613 152.483 75.096 146.211 75.096 138.872V133.752H98.648V139.64C98.648 143.053 99.6293 145.869 101.592 148.088C103.64 150.221 106.499 151.288 110.168 151.288C113.837 151.288 116.653 150.221 118.616 148.088C120.664 145.869 121.688 143.053 121.688 139.64V95.736H145.496V138.872C145.496 146.211 144.088 152.483 141.272 157.688C138.541 162.808 134.573 166.733 129.368 169.464C124.163 172.195 117.805 173.56 110.296 173.56ZM85.592 98.296V77.56H145.496V98.296H85.592ZM153.37 171V145.656H178.458V171H153.37Z"
          fill="#F4F4F5"/>
</svg>
